<svg width="16" height="14" viewBox="0 0 16 14" fill="none" xmlns="http://www.w3.org/2000/svg">
<path d="M14.5 0.428589H1.5C0.671562 0.428589 0 1.14212 0 2.02234V11.5848C0 12.4651 0.671562 13.1786 1.5 13.1786H14.5C15.3284 13.1786 16 12.4651 16 11.5848V2.02234C16 1.14212 15.3284 0.428589 14.5 0.428589ZM14.5 2.02234V3.37719C13.7993 3.98345 12.6823 4.92615 10.2942 6.91299C9.76787 7.35284 8.72538 8.40952 8 8.39721C7.27475 8.40966 6.23191 7.35267 5.70584 6.91299C3.31813 4.92645 2.20078 3.98355 1.5 3.37719V2.02234H14.5ZM1.5 11.5848V5.42227C2.21606 6.02826 3.23153 6.87863 4.77931 8.16638C5.46234 8.73764 6.6585 9.99872 8 9.99106C9.33491 9.99872 10.5159 8.75593 11.2204 8.16664C12.7682 6.87893 13.7839 6.02833 14.5 5.42231V11.5848H1.5Z" fill="#D4D1C5"/>
</svg>
